<svg width="159" height="26" viewBox="0 0 159 26" fill="none" xmlns="http://www.w3.org/2000/svg">
<path d="M80.7564 4.78263L81.0013 3.18827C81.043 2.93813 80.97 2.68796 80.8033 2.49515C80.6417 2.30234 80.402 2.19287 80.1467 2.19287H70.4645C70.0372 2.19287 69.6777 2.50027 69.6099 2.92237L67.0096 19.3632C66.9731 19.6133 67.0409 19.8688 67.2076 20.0616C67.3692 20.2544 67.6089 20.369 67.859 20.369H70.0945C70.5219 20.369 70.8762 20.0616 70.9492 19.6395L71.9549 13.261H77.4943C77.9164 13.261 78.2759 12.9536 78.3437 12.5315L78.573 11.1402C78.6094 10.8901 78.5417 10.6348 78.3749 10.442C78.2082 10.244 77.9685 10.1344 77.7131 10.1344H72.4864L73.1691 5.51747H79.8966C80.3343 5.51226 80.6939 5.20993 80.7564 4.78263ZM131.507 10.27L131.439 10.2438C130.84 10.0614 130.142 9.96265 129.376 9.96265C128.13 9.96265 127.182 10.4679 126.562 11.4685C125.957 12.4534 125.644 13.5635 125.644 14.762C125.644 15.5176 125.775 16.1532 126.035 16.6482C126.306 17.1589 126.692 17.4248 127.182 17.4248C127.729 17.4248 128.359 17.0703 129.063 16.3772C129.751 15.6998 130.381 14.8871 130.923 13.9699L131.507 10.27ZM135.572 8.37847L133.795 19.655C133.727 20.0823 133.367 20.3848 132.94 20.3848H131.622C131.387 20.3848 131.163 20.2908 131.001 20.1189C130.84 19.9521 130.751 19.7229 130.762 19.4884L130.814 18.0917L130.658 18.2637C130.652 18.2689 130.147 18.8317 129.563 19.2851C128.693 19.9625 127.729 20.3273 127.625 20.369C127.088 20.567 126.51 20.6659 125.905 20.6659C124.576 20.6659 123.586 20.1917 122.862 19.2225C122.143 18.2584 121.783 16.9767 121.783 15.4238C121.783 14.6161 121.866 13.8188 122.023 13.058C122.184 12.2972 122.466 11.5259 122.867 10.7598C123.268 9.99902 123.774 9.32153 124.368 8.75352C124.957 8.18551 125.738 7.72165 126.681 7.36729C127.625 7.01815 128.703 6.8411 129.876 6.8411C131.319 6.8411 133.003 7.02352 134.879 7.3935C135.342 7.4873 135.645 7.91468 135.572 8.37847ZM145.014 6.97138C144.128 7.17982 143.263 7.72177 142.69 8.14387C142.039 8.62328 141.106 9.63951 141.09 9.64993L140.934 9.82194L141.017 8.02911C141.028 7.79461 140.944 7.56012 140.777 7.38816C140.616 7.21619 140.387 7.12252 140.152 7.12252H138.823C138.396 7.12252 138.036 7.42471 137.969 7.85202L136.15 19.384C136.114 19.6342 136.186 19.8843 136.348 20.0772C136.51 20.27 136.749 20.3794 137.005 20.3794H139.058C139.485 20.3794 139.845 20.072 139.912 19.6499L140.871 13.5112C141.418 12.7399 142.127 12.0781 142.987 11.5361C143.628 11.1349 144.284 10.8744 144.941 10.7754C145.301 10.718 145.587 10.4421 145.655 10.0825L146.051 7.97186C146.108 7.68525 146.015 7.39343 145.801 7.1902C145.603 6.98697 145.301 6.90884 145.014 6.97138ZM103.815 12.7453C103.815 11.9845 103.68 11.3487 103.419 10.8588C103.148 10.3481 102.768 10.0876 102.278 10.0876C101.731 10.0876 101.095 10.4369 100.397 11.1351C99.704 11.8178 99.078 12.6253 98.531 13.5425L97.9477 17.2373L98.021 17.2581C98.62 17.4457 99.313 17.5393 100.084 17.5393C101.335 17.5393 102.283 17.034 102.898 16.0335C103.503 15.0538 103.815 13.949 103.815 12.7453ZM106.593 8.28966C107.307 9.25371 107.672 10.5358 107.672 12.0835C107.672 13.1048 107.531 14.1052 107.255 15.0536C106.978 16.002 106.541 16.9244 105.952 17.7999C105.368 18.6649 104.524 19.3736 103.44 19.8947C102.351 20.421 101.059 20.6922 99.605 20.6922C99.032 20.6922 98.307 20.6349 97.4526 20.5151L97.3641 20.5046L97.2077 22.0679C97.2025 22.0836 97.2025 22.099 97.2025 22.1199L96.7492 24.8661C96.6762 25.283 96.3218 25.5854 95.8997 25.5854H93.8622C93.6069 25.5854 93.3724 25.4759 93.2108 25.2831C93.0441 25.0903 92.9711 24.84 93.0128 24.5847L95.6705 7.85202C95.7382 7.42992 96.0978 7.12761 96.5251 7.12761H97.8435C98.078 7.12761 98.307 7.22141 98.469 7.38816C98.63 7.56012 98.719 7.78939 98.709 8.01868L98.656 9.4362L98.813 9.23824C98.828 9.22261 100.084 7.6957 102.007 7.09122C102.539 6.92447 103.049 6.8411 103.565 6.8411C104.873 6.84631 105.869 7.31519 106.593 8.28966ZM154.133 7.12252H152.528L152.883 4.8297C152.919 4.57957 152.846 4.32419 152.685 4.13659C152.523 3.94378 152.278 3.8343 152.028 3.8343H150.407C150.027 3.8343 149.688 4.08441 149.579 4.45439L148.792 7.12252H147.906C147.479 7.12252 147.125 7.42483 147.057 7.84693L146.854 9.0871C146.817 9.33723 146.88 9.59249 147.052 9.7853C147.213 9.97811 147.453 10.0876 147.708 10.0876H148.245L147.286 16.2261C147.218 16.6117 147.182 17.0131 147.182 17.4352C147.182 18.5243 147.468 19.3164 148.063 19.8583C148.646 20.3899 149.537 20.6659 150.72 20.6659C151.429 20.6659 152.429 20.369 152.549 20.3273C152.643 20.2908 152.82 20.2336 152.841 20.2232C152.878 20.2076 152.914 20.1918 152.945 20.1761C153.195 20.0406 153.357 19.7958 153.388 19.5197L153.539 18.2482C153.565 17.9824 153.472 17.7113 153.274 17.5289C153.216 17.4768 153.159 17.4301 153.091 17.3884C153.044 17.3676 153.003 17.3465 152.956 17.3309C152.924 17.3205 152.846 17.3048 152.539 17.31C152.466 17.31 152.388 17.3154 152.31 17.3154C152.169 17.3154 152.08 17.31 152.033 17.2996C151.913 17.2788 151.616 17.2163 151.465 17.0808C151.392 17.0183 151.168 16.8203 151.168 16.0907C151.168 16.0178 151.174 15.9084 151.194 15.7521L152.075 10.0929H153.894C154.305 10.0929 154.665 9.80107 154.743 9.39981L154.983 8.15939C155.035 7.90404 154.967 7.64368 154.8 7.44566C154.639 7.23722 154.394 7.12252 154.133 7.12252ZM121.47 7.47162C121.309 7.25275 121.048 7.12252 120.777 7.12252H118.63C118.25 7.12252 117.911 7.37795 117.802 7.73751C117.619 8.36284 117.276 9.08178 116.77 9.88428C116.067 11.0151 115.488 11.7135 114.998 12.0262L114.92 12.0626C114.748 12.1512 114.477 12.2813 113.529 12.4481L113.409 12.4689L114.894 3.18827C114.931 2.93813 114.863 2.68275 114.696 2.49515C114.535 2.30234 114.295 2.18753 114.045 2.18753H111.992C111.564 2.18753 111.205 2.49518 111.137 2.91728L108.526 19.3894C108.484 19.6395 108.557 19.8897 108.719 20.0825C108.881 20.2753 109.125 20.3899 109.376 20.3899H111.429C111.856 20.3899 112.216 20.0825 112.283 19.6604L112.956 15.3663H114.243L116.014 19.8428C116.145 20.1763 116.463 20.3899 116.817 20.3899H119.047C119.521 20.3899 119.912 20.0042 119.912 19.5247C119.912 19.4101 119.886 19.2904 119.839 19.181L117.812 13.9542L117.854 13.9178C118.693 13.1622 119.553 12.0886 120.413 10.739C120.97 9.86351 121.366 9.01929 121.601 8.24285C121.684 7.97187 121.632 7.69048 121.47 7.47162ZM91.7413 5.98641C92.5959 5.98641 93.2369 5.76754 93.6433 5.3246C94.055 4.87645 94.2583 4.3242 94.2583 3.62591C94.2583 3.08396 94.1071 2.67758 93.7997 2.40661C93.4974 2.13563 93.0285 2 92.4031 2C91.5485 2 90.9075 2.22409 90.5063 2.66182C90.0894 3.10997 89.8862 3.66756 89.8862 4.36584C89.8862 4.90779 90.0425 5.3143 90.3448 5.58006C90.6574 5.85625 91.1108 5.98641 91.7413 5.98641ZM92.4344 7.12252H90.4021C89.9748 7.12252 89.6204 7.42483 89.5475 7.84693L87.7288 19.384C87.6923 19.6342 87.7601 19.8896 87.9268 20.0772C88.0884 20.27 88.3281 20.3794 88.5782 20.3794H90.6105C91.0378 20.3794 91.3922 20.072 91.4651 19.6499L93.2838 8.11791C93.3203 7.86778 93.2525 7.6124 93.0858 7.4248C92.9242 7.2372 92.6897 7.12252 92.4344 7.12252ZM86.5563 2.49515C86.7179 2.68796 86.796 2.93813 86.7543 3.18827L84.7533 15.9554C84.7324 16.1742 84.7272 16.3095 84.7272 16.3981C84.7272 16.8254 84.8106 17.1225 84.9721 17.2737C85.1233 17.4144 85.4568 17.4925 85.5141 17.5029C85.6965 17.529 85.8684 17.6229 85.9987 17.7584C86.1707 17.9408 86.2593 18.1907 86.2384 18.4408L86.1238 19.5873C86.0977 19.8323 85.9935 20.0354 85.8424 20.1448C85.7017 20.2386 85.5297 20.3274 85.3109 20.4107C85.092 20.4941 84.4771 20.6713 84.0498 20.6713C82.9711 20.6713 82.1373 20.4211 81.5693 19.926C81.0065 19.4362 80.7199 18.7222 80.7199 17.7999C80.7199 17.5497 80.746 17.2738 80.7981 16.9767C80.8137 16.8517 82.9711 3.07883 82.9971 2.92771C83.0649 2.50562 83.4245 2.19796 83.8518 2.19796H85.9049C86.1551 2.19275 86.3896 2.30234 86.5563 2.49515Z" fill="#2A55E5"/>
</svg>
